@startuml
skinparam monochrome true
skinparam StateFontName Helvetica
skinparam defaultFontName Monospaced
skinparam defaultFontStyle Bold
skinparam state {
    FontStyle Bold
}
state TimerSecureTurnstileFSM {
[*] --> UNLOCKED
LOCKED --> LOCKED : CARD
LOCKED --> LOCKED : CARD
LOCKED --> UNLOCKED : CARD
LOCKED --> LOCKED : CARD
UNLOCKED --> LOCKED : <<timeout = TimerSecureTurnstile::timeout>>
UNLOCKED --> LOCKED : CARD
UNLOCKED --> LOCKED : PASS
}
@enduml
